<svg enable-background="new 0 0 780.9 133.2" viewBox="0 0 780.9 133.2" xmlns="http://www.w3.org/2000/svg"><g fill="#34495e"><path d="m275.3 37.4c0 4.6-.9 9.1-2.7 13.3-1.8 4.3-4.2 8.4-7.1 12.3-2.9 4-6.2 7.8-9.9 11.4-3.7 3.7-7.2 7.1-10.8 10.4-1.8 1.7-3.8 3.6-5.9 5.8-2.1 2.1-4.2 4.3-6.1 6.5s-3.7 4.2-5.2 6.1-2.5 3.4-2.8 4.7h54.4v22.8h-84.4c-.2-1.3-.4-3-.4-5.1s0-3.5 0-4.4c0-5.8.9-11.2 2.8-16.1s4.4-9.4 7.4-13.6 6.5-8.1 10.3-11.8 7.6-7.3 11.4-11c2.9-2.8 5.7-5.4 8.2-7.9 2.6-2.5 4.8-4.9 6.8-7.3 1.9-2.4 3.5-4.7 4.6-7.1s1.6-4.8 1.6-7.2c0-5.4-1.5-9.1-4.6-11.3-3-2.2-6.8-3.3-11.3-3.3-3.3 0-6.4.5-9.2 1.6-2.9 1-5.5 2.3-7.9 3.7s-4.4 2.8-6.1 4.2-3 2.5-3.8 3.4l-13.5-19c5.4-5 11.6-9.1 18.7-12.3s14.8-4.8 22.9-4.8c7.4 0 13.8.9 19.2 2.6s9.8 4.1 13.2 7.2c3.5 3.1 6 6.9 7.7 11.3 1.7 4.3 2.5 9.3 2.5 14.9zm71.5 0c-4.7 6.2-9.8 13-15.2 20.3s-9.9 14.8-13.5 22.5h28.7zm26.6-33.2v76h13.5v22.3h-13.5v28.3h-26.7v-28.3h-54.6v-20c2.7-5.4 6-11.4 10-18.2s8.5-13.7 13.4-20.8 10.1-14.1 15.6-20.9 11-13 16.4-18.4zm58.3 47.3c0 5.5-1.7 9.6-5.2 12.5s-7.4 4.3-11.8 4.3-8.3-1.4-11.8-4.3-5.2-7-5.2-12.5 1.7-9.6 5.2-12.5 7.4-4.3 11.8-4.3 8.3 1.4 11.8 4.3c3.5 2.8 5.2 7 5.2 12.5zm0 64.8c0 5.5-1.7 9.6-5.2 12.5s-7.4 4.3-11.8 4.3-8.3-1.4-11.8-4.3-5.2-7-5.2-12.5 1.7-9.6 5.2-12.5 7.4-4.3 11.8-4.3 8.3 1.4 11.8 4.3 5.2 7.1 5.2 12.5zm20.1 14.5v-126.6h85.5v23.9h-57v24.9h50.6v23.4h-50.6v30.5h61.2v23.9zm147.7-128.1c19 0 33.5 3.4 43.7 10.1 10.1 6.8 15.2 17.3 15.2 31.5 0 8.9-2 16.1-6.1 21.6s-10 9.9-17.6 13.1c2.6 3.2 5.2 6.8 8 10.9s5.6 8.3 8.3 12.8c2.7 4.4 5.4 9.1 7.9 13.9 2.6 4.8 4.9 9.5 7.1 14.2h-31.8c-2.3-4.1-4.7-8.3-7.1-12.6s-4.8-8.4-7.3-12.4-5-7.8-7.4-11.4-4.9-6.8-7.3-9.8h-14.1v46.2h-28.5v-124.8c6.2-1.2 12.6-2.1 19.3-2.6 6.6-.4 12.5-.7 17.7-.7zm1.7 24.3c-2.1 0-3.9.1-5.6.2-1.6.1-3.2.2-4.7.4v34.3h8c10.7 0 18.4-1.3 23-4s6.9-7.2 6.9-13.7c0-6.2-2.3-10.6-7-13.2-4.6-2.7-11.5-4-20.6-4zm121.1-24.3c18.9 0 33.4 3.3 43.5 10 10.1 6.6 15.2 17.5 15.2 32.6 0 15.2-5.1 26.2-15.3 33s-24.8 10.1-43.8 10.1h-8.9v42.4h-28.5v-124.8c6.2-1.2 12.8-2.1 19.7-2.6 6.8-.4 12.8-.7 18.1-.7zm1.8 24.3c-2.1 0-4.1.1-6.1.2s-3.7.2-5.2.4v36.5h8.9c9.9 0 17.3-1.3 22.3-4s7.5-7.7 7.5-15c0-3.5-.6-6.5-1.9-8.8s-3.1-4.2-5.5-5.6-5.3-2.4-8.7-2.9-7.2-.8-11.3-.8z"/><g clip-rule="evenodd" fill-rule="evenodd"><path d="m124.8 66.6 38.5-66.6h-26.6l-52.1 66.6 52.1 66.6h26.6z"/><path d="m38.5 66.6-38.5-66.6h26.6l52 66.6-52 66.6h-26.6z"/></g></g></svg>