<?xml version="1.0" encoding="utf-8"?>
<!-- Generator: Adobe Illustrator 24.3.0, SVG Export Plug-In . SVG Version: 6.00 Build 0)  -->
<svg version="1.1" id="Layer_1" xmlns="http://www.w3.org/2000/svg" xmlns:xlink="http://www.w3.org/1999/xlink" x="0px" y="0px"
	 viewBox="0 0 1037 151" style="enable-background:new 0 0 1037 151;" xml:space="preserve">
<style type="text/css">
	.st0{fill:#FFFFFF;}
	.st1{fill:#18222F;}
	.st2{fill-rule:evenodd;clip-rule:evenodd;fill:#A7AEBC;}
	.st3{fill:#E3F3F7;}
	.st4{fill:#028AB0;}
	.st5{clip-path:url(#SVGID_2_);}
	.st6{fill:#A7AEBC;}
	.st7{clip-path:url(#SVGID_7_);}
	.st8{clip-path:url(#SVGID_8_);fill:#E5E9F0;}
	.st9{clip-path:url(#SVGID_13_);}
	.st10{clip-path:url(#SVGID_14_);fill:#E5E9F0;}
	.st11{clip-path:url(#SVGID_19_);}
	.st12{clip-path:url(#SVGID_20_);fill:#E5E9F0;}
	.st13{clip-path:url(#SVGID_25_);}
	.st14{clip-path:url(#SVGID_26_);fill:#E5E9F0;}
</style>
<rect class="st0" width="1037" height="151"/>
<path class="st1" d="M29.9,108.7h-2.5v-1.8h2.1c0.7,0,1.2-0.1,1.6-0.3c0.4-0.2,0.7-0.5,0.9-0.9c0.2-0.4,0.3-0.8,0.3-1.3
	c0-0.4-0.1-0.8-0.3-1.2c-0.2-0.4-0.5-0.6-1-0.9s-1-0.3-1.7-0.3c-0.5,0-1,0.1-1.4,0.3c-0.4,0.2-0.8,0.4-1,0.8
	c-0.2,0.3-0.4,0.7-0.4,1.2h-3.2c0-0.8,0.2-1.4,0.5-2c0.3-0.6,0.8-1.1,1.3-1.5c0.6-0.4,1.2-0.7,1.9-1c0.7-0.2,1.5-0.3,2.3-0.3
	c0.9,0,1.8,0.1,2.6,0.3c0.8,0.2,1.4,0.5,2,0.9c0.5,0.4,1,0.9,1.3,1.5c0.3,0.6,0.4,1.3,0.4,2.1c0,0.6-0.1,1.1-0.4,1.7
	c-0.3,0.5-0.6,1-1.1,1.4c-0.5,0.4-1.1,0.7-1.8,0.9C31.6,108.6,30.8,108.7,29.9,108.7z M27.4,107.7h2.5c0.9,0,1.8,0.1,2.5,0.3
	c0.7,0.2,1.4,0.5,1.9,0.9c0.5,0.4,0.9,0.8,1.2,1.4c0.3,0.5,0.4,1.2,0.4,1.9c0,0.8-0.2,1.5-0.5,2.1c-0.3,0.6-0.8,1.1-1.4,1.6
	c-0.6,0.4-1.3,0.8-2.1,1c-0.8,0.2-1.7,0.3-2.6,0.3c-0.8,0-1.5-0.1-2.3-0.3c-0.7-0.2-1.4-0.5-2-0.9c-0.6-0.4-1.1-0.9-1.5-1.5
	c-0.4-0.6-0.5-1.4-0.5-2.2h3.2c0,0.5,0.1,0.9,0.4,1.2c0.3,0.4,0.6,0.7,1.1,0.9s1,0.3,1.6,0.3c0.7,0,1.3-0.1,1.8-0.3
	c0.5-0.2,0.9-0.5,1.1-0.9c0.3-0.4,0.4-0.8,0.4-1.3s-0.1-0.9-0.2-1.2c-0.1-0.3-0.3-0.6-0.6-0.8c-0.3-0.2-0.6-0.4-1-0.5
	c-0.4-0.1-0.8-0.2-1.3-0.2h-2.1V107.7z M45.3,114.2v-5.8c0-0.4-0.1-0.8-0.2-1.1s-0.4-0.6-0.7-0.7c-0.3-0.2-0.7-0.3-1.2-0.3
	c-0.4,0-0.8,0.1-1.1,0.2c-0.3,0.1-0.5,0.3-0.7,0.6c-0.1,0.2-0.2,0.5-0.2,0.8h-3.1c0-0.5,0.1-1,0.4-1.5c0.2-0.5,0.6-0.9,1.1-1.3
	c0.5-0.4,1-0.7,1.7-0.9c0.7-0.2,1.4-0.3,2.2-0.3c1,0,1.8,0.2,2.6,0.5c0.8,0.3,1.4,0.8,1.8,1.5c0.4,0.6,0.7,1.5,0.7,2.4v5.6
	c0,0.6,0,1.2,0.1,1.6c0.1,0.4,0.2,0.8,0.4,1.2v0.2h-3.2c-0.1-0.3-0.3-0.7-0.3-1.2C45.3,115.2,45.3,114.7,45.3,114.2z M45.7,109.2
	v1.8h-2c-0.5,0-0.9,0.1-1.3,0.2c-0.4,0.1-0.7,0.2-0.9,0.4c-0.2,0.2-0.4,0.4-0.5,0.7c-0.1,0.2-0.2,0.5-0.2,0.9c0,0.3,0.1,0.6,0.2,0.8
	c0.1,0.2,0.4,0.4,0.6,0.6c0.3,0.1,0.6,0.2,1,0.2c0.5,0,1-0.1,1.4-0.3c0.4-0.2,0.7-0.5,0.9-0.8c0.2-0.3,0.3-0.6,0.4-0.9l0.9,1.3
	c-0.1,0.3-0.3,0.7-0.5,1c-0.2,0.4-0.5,0.7-0.8,1s-0.8,0.6-1.2,0.8c-0.5,0.2-1,0.3-1.7,0.3c-0.8,0-1.6-0.2-2.2-0.5s-1.2-0.8-1.5-1.3
	s-0.6-1.2-0.6-1.9c0-0.7,0.1-1.3,0.4-1.8c0.2-0.5,0.6-0.9,1.1-1.3c0.5-0.4,1.1-0.6,1.8-0.8c0.7-0.2,1.6-0.3,2.5-0.3L45.7,109.2
	L45.7,109.2z M53.9,110.6h3.2l-3.6,6.3h-3.2L53.9,110.6z M56,104.2h5.5v12.7h-3.1v-10.3H56c-0.5,0-0.9,0.1-1.2,0.3
	c-0.3,0.2-0.6,0.4-0.7,0.7c-0.2,0.3-0.2,0.6-0.2,0.8c0,0.3,0.1,0.6,0.2,0.8c0.1,0.3,0.4,0.5,0.7,0.7c0.3,0.2,0.7,0.3,1.2,0.3h3.6
	v2.2H56c-0.8,0-1.5-0.1-2.2-0.3c-0.6-0.2-1.2-0.5-1.6-0.8c-0.4-0.4-0.8-0.8-1-1.3s-0.4-1-0.4-1.6c0-0.6,0.1-1.1,0.4-1.6
	c0.2-0.5,0.6-0.9,1-1.3c0.5-0.4,1-0.7,1.7-0.9C54.5,104.2,55.2,104.2,56,104.2z M70.8,111.4h-4v-2.1h3.3c0.5,0,0.9-0.1,1.2-0.2
	c0.3-0.1,0.5-0.3,0.7-0.5s0.2-0.4,0.2-0.7c0-0.2,0-0.5-0.1-0.6c-0.1-0.2-0.2-0.3-0.4-0.5c-0.2-0.1-0.4-0.2-0.7-0.3
	c-0.3-0.1-0.6-0.1-1-0.1h-2.1v10.4h-3.1v-12.7H70c0.8,0,1.6,0.1,2.2,0.2c0.7,0.1,1.2,0.4,1.7,0.6s0.8,0.7,1.1,1.1
	c0.2,0.4,0.4,1,0.4,1.5c0,0.4-0.1,0.8-0.3,1.1c-0.2,0.3-0.4,0.6-0.8,0.9c-0.3,0.3-0.8,0.5-1.2,0.7c-0.5,0.2-1.1,0.3-1.7,0.3
	L70.8,111.4z M70.8,116.9h-4.9l1.1-2.4h3.7c0.5,0,0.8-0.1,1.1-0.2c0.3-0.1,0.5-0.3,0.7-0.5c0.1-0.2,0.2-0.5,0.2-0.8
	s-0.1-0.6-0.2-0.8c-0.1-0.2-0.3-0.4-0.6-0.5c-0.3-0.1-0.7-0.2-1.1-0.2h-3.2v-2.1h3.7l0.8,0.8c0.8,0.1,1.5,0.2,2.1,0.5s1,0.6,1.2,1.1
	c0.3,0.4,0.4,0.9,0.4,1.4c0,0.6-0.1,1.1-0.3,1.6c-0.2,0.5-0.6,0.8-1,1.1s-1,0.5-1.6,0.7C72.3,116.8,71.6,116.9,70.8,116.9z
	 M81.5,104.2v12.7h-3.1v-12.7H81.5z M89.7,104.2l-5.6,7.8h-3.3l-0.4-2.8h2.3l3.1-4.9L89.7,104.2L89.7,104.2z M86,116.9l-3.5-5.4
	l2.6-1.6l5,7.1L86,116.9L86,116.9z M98.5,114.2v-5.8c0-0.4-0.1-0.8-0.2-1.1c-0.1-0.3-0.4-0.6-0.7-0.7c-0.3-0.2-0.7-0.3-1.2-0.3
	c-0.4,0-0.8,0.1-1.1,0.2c-0.3,0.1-0.5,0.3-0.7,0.6c-0.2,0.2-0.2,0.5-0.2,0.9h-3.1c0-0.5,0.1-1,0.4-1.5c0.2-0.5,0.6-0.9,1.1-1.3
	c0.5-0.4,1-0.7,1.7-0.9s1.4-0.3,2.2-0.3c1,0,1.8,0.2,2.6,0.5s1.4,0.8,1.8,1.5c0.4,0.6,0.7,1.5,0.7,2.4v5.5c0,0.6,0,1.2,0.1,1.6
	c0.1,0.4,0.2,0.8,0.4,1.2v0.2h-3.2c-0.1-0.3-0.3-0.7-0.3-1.2C98.6,115.2,98.5,114.7,98.5,114.2z M99,109.2v1.8h-2
	c-0.5,0-0.9,0.1-1.3,0.2c-0.4,0.1-0.7,0.2-0.9,0.4c-0.2,0.2-0.4,0.4-0.5,0.7c-0.1,0.2-0.2,0.5-0.2,0.9c0,0.3,0.1,0.6,0.2,0.8
	c0.1,0.2,0.4,0.4,0.6,0.6c0.3,0.1,0.6,0.2,1,0.2c0.5,0,1-0.1,1.4-0.3c0.4-0.2,0.7-0.5,0.9-0.8c0.2-0.3,0.3-0.6,0.4-0.9l0.9,1.3
	c-0.1,0.3-0.3,0.7-0.5,1c-0.2,0.4-0.5,0.7-0.8,1s-0.8,0.6-1.2,0.8c-0.5,0.2-1,0.3-1.7,0.3c-0.8,0-1.6-0.2-2.2-0.5s-1.2-0.8-1.5-1.3
	s-0.6-1.2-0.6-1.9c0-0.7,0.1-1.3,0.4-1.8c0.2-0.5,0.6-0.9,1.1-1.3c0.5-0.4,1.1-0.6,1.8-0.8c0.7-0.2,1.6-0.3,2.5-0.3L99,109.2
	L99,109.2z M131.6,110.2v1.7h-7v-1.7H131.6z M124.1,104.7v-0.9c0-0.8,0.2-1.5,0.5-2.1c0.3-0.6,0.8-1.1,1.4-1.5
	c0.6-0.4,1.3-0.5,2.1-0.5c0.8,0,1.6,0.2,2.2,0.5c0.6,0.4,1.1,0.9,1.4,1.5c0.3,0.6,0.5,1.3,0.5,2.1v0.9c0,0.8-0.2,1.5-0.5,2.1
	c-0.3,0.6-0.8,1.1-1.4,1.5c-0.6,0.4-1.3,0.5-2.1,0.5c-0.8,0-1.6-0.2-2.2-0.5c-0.6-0.4-1.1-0.9-1.4-1.5
	C124.3,106.2,124.1,105.4,124.1,104.7z M126.1,103.8v0.9c0,0.5,0.1,0.9,0.2,1.3c0.1,0.4,0.4,0.7,0.7,0.9s0.7,0.3,1.2,0.3
	c0.5,0,0.8-0.1,1.1-0.3c0.3-0.2,0.5-0.5,0.7-0.9c0.1-0.4,0.2-0.8,0.2-1.3v-0.9c0-0.5-0.1-0.9-0.2-1.3c-0.1-0.4-0.4-0.7-0.7-0.9
	s-0.7-0.3-1.1-0.3c-0.4,0-0.8,0.1-1.1,0.3c-0.3,0.2-0.5,0.5-0.7,0.9C126.1,102.9,126.1,103.2,126.1,103.8z M122.5,99.8v17.1h-3.4
	l-5.4-11.8v11.8h-3.1V99.8h3.4l5.4,11.8V99.8H122.5z M152.3,107.1v2.5h-7.1v-2.5H152.3z M140.3,111.2h3.2c0.1,0.7,0.2,1.3,0.5,1.8
	s0.6,0.9,1.1,1.1s1.1,0.4,1.9,0.4c0.7,0,1.2-0.1,1.7-0.4s0.9-0.6,1.2-1.1s0.5-1.1,0.7-1.8c0.1-0.7,0.2-1.5,0.2-2.3v-1.3
	c0-0.7-0.1-1.4-0.2-2c-0.1-0.6-0.3-1.1-0.5-1.6s-0.5-0.8-0.8-1.1s-0.7-0.5-1.1-0.7c-0.4-0.2-0.9-0.2-1.4-0.2c-0.8,0-1.4,0.1-1.9,0.4
	s-0.9,0.7-1.1,1.2c-0.2,0.5-0.4,1.1-0.5,1.8h-3.2c0.1-1.1,0.4-2.2,1-3.1c0.5-0.9,1.3-1.6,2.2-2.1c1-0.5,2.1-0.8,3.5-0.8
	c1.1,0,2,0.2,2.9,0.6c0.9,0.4,1.6,0.9,2.2,1.6c0.6,0.7,1.1,1.6,1.4,2.6c0.3,1,0.5,2.1,0.5,3.4v1.3c0,1.2-0.2,2.4-0.5,3.4
	s-0.8,1.9-1.4,2.6c-0.6,0.7-1.3,1.2-2.2,1.6c-0.9,0.4-1.8,0.6-2.9,0.6c-1.4,0-2.6-0.2-3.5-0.8c-1-0.5-1.7-1.2-2.3-2.1
	C140.7,113.4,140.4,112.4,140.3,111.2z M163.7,99.8v17.1h-3.2V99.8H163.7z M169,99.8v2.5h-13.8v-2.5H169z M174.1,108.4v2.4h-6.4
	v-2.4H174.1z M187.9,106.9v2.9c0,1.3-0.1,2.4-0.4,3.4c-0.3,0.9-0.6,1.7-1.1,2.3c-0.5,0.6-1.1,1-1.8,1.3s-1.5,0.4-2.3,0.4
	c-0.7,0-1.3-0.1-1.9-0.3c-0.6-0.2-1.1-0.5-1.6-0.8c-0.5-0.4-0.9-0.9-1.2-1.4c-0.3-0.6-0.6-1.3-0.8-2.1s-0.3-1.7-0.3-2.8v-2.9
	c0-1.3,0.1-2.4,0.4-3.4c0.3-0.9,0.7-1.7,1.2-2.3c0.5-0.6,1.1-1,1.8-1.3s1.5-0.4,2.3-0.4c0.7,0,1.3,0.1,1.9,0.3
	c0.6,0.2,1.1,0.4,1.6,0.8c0.5,0.4,0.9,0.8,1.2,1.4c0.3,0.6,0.6,1.3,0.8,2.1C187.8,104.9,187.9,105.9,187.9,106.9z M184.8,110.2v-3.7
	c0-0.7,0-1.2-0.1-1.7s-0.2-0.9-0.3-1.3c-0.1-0.3-0.3-0.6-0.5-0.8s-0.5-0.4-0.7-0.5c-0.3-0.1-0.6-0.2-0.9-0.2c-0.4,0-0.8,0.1-1.1,0.2
	c-0.3,0.2-0.6,0.4-0.8,0.8c-0.2,0.3-0.4,0.8-0.5,1.4c-0.1,0.6-0.2,1.2-0.2,2.1v3.7c0,0.7,0,1.2,0.1,1.7s0.2,0.9,0.3,1.3
	c0.1,0.4,0.3,0.6,0.5,0.9c0.2,0.2,0.5,0.4,0.7,0.5c0.3,0.1,0.6,0.2,0.9,0.2c0.4,0,0.8-0.1,1.1-0.2c0.3-0.2,0.6-0.4,0.8-0.8
	c0.2-0.4,0.4-0.8,0.5-1.4C184.7,111.7,184.8,110.9,184.8,110.2z M201.6,106.9v2.9c0,1.3-0.1,2.4-0.4,3.4c-0.3,0.9-0.6,1.7-1.1,2.3
	c-0.5,0.6-1.1,1-1.8,1.3s-1.5,0.4-2.3,0.4c-0.7,0-1.3-0.1-1.9-0.3c-0.6-0.2-1.1-0.5-1.6-0.8c-0.5-0.4-0.9-0.9-1.2-1.4
	c-0.3-0.6-0.6-1.3-0.8-2.1s-0.3-1.7-0.3-2.8v-2.9c0-1.3,0.1-2.4,0.4-3.4c0.3-0.9,0.7-1.7,1.2-2.3c0.5-0.6,1.1-1,1.8-1.3
	s1.5-0.4,2.3-0.4c0.7,0,1.3,0.1,1.9,0.3c0.6,0.2,1.1,0.4,1.6,0.8c0.5,0.4,0.9,0.8,1.2,1.4c0.3,0.6,0.6,1.3,0.8,2.1
	C201.5,104.9,201.6,105.9,201.6,106.9z M198.5,110.2v-3.7c0-0.7,0-1.2-0.1-1.7s-0.2-0.9-0.3-1.3c-0.1-0.3-0.3-0.6-0.5-0.8
	s-0.5-0.4-0.7-0.5c-0.3-0.1-0.6-0.2-0.9-0.2c-0.4,0-0.8,0.1-1.1,0.2c-0.3,0.2-0.6,0.4-0.8,0.8c-0.2,0.3-0.4,0.8-0.5,1.4
	c-0.1,0.6-0.2,1.2-0.2,2.1v3.7c0,0.7,0,1.2,0.1,1.7s0.2,0.9,0.3,1.3c0.1,0.4,0.3,0.6,0.5,0.9c0.2,0.2,0.5,0.4,0.7,0.5
	c0.3,0.1,0.6,0.2,0.9,0.2c0.4,0,0.8-0.1,1.1-0.2c0.3-0.2,0.6-0.4,0.8-0.8c0.2-0.4,0.4-0.8,0.5-1.4
	C198.4,111.7,198.5,110.9,198.5,110.2z M215.3,106.9v2.9c0,1.3-0.1,2.4-0.4,3.4c-0.3,0.9-0.6,1.7-1.1,2.3c-0.5,0.6-1.1,1-1.8,1.3
	s-1.5,0.4-2.3,0.4c-0.7,0-1.3-0.1-1.9-0.3c-0.6-0.2-1.1-0.5-1.6-0.8c-0.5-0.4-0.9-0.9-1.2-1.4c-0.3-0.6-0.6-1.3-0.8-2.1
	s-0.3-1.7-0.3-2.8v-2.9c0-1.3,0.1-2.4,0.4-3.4c0.3-0.9,0.7-1.7,1.2-2.3c0.5-0.6,1.1-1,1.8-1.3s1.5-0.4,2.3-0.4
	c0.7,0,1.3,0.1,1.9,0.3c0.6,0.2,1.1,0.4,1.6,0.8c0.5,0.4,0.9,0.8,1.2,1.4c0.3,0.6,0.6,1.3,0.8,2.1
	C215.2,104.9,215.3,105.9,215.3,106.9z M212.2,110.2v-3.7c0-0.7,0-1.2-0.1-1.7s-0.2-0.9-0.3-1.3c-0.1-0.3-0.3-0.6-0.5-0.8
	s-0.5-0.4-0.7-0.5c-0.3-0.1-0.6-0.2-0.9-0.2c-0.4,0-0.8,0.1-1.1,0.2c-0.3,0.2-0.6,0.4-0.8,0.8c-0.2,0.3-0.4,0.8-0.5,1.4
	c-0.1,0.6-0.2,1.2-0.2,2.1v3.7c0,0.7,0,1.2,0.1,1.7s0.2,0.9,0.3,1.3c0.1,0.4,0.3,0.6,0.5,0.9c0.2,0.2,0.5,0.4,0.7,0.5
	c0.3,0.1,0.6,0.2,0.9,0.2c0.4,0,0.8-0.1,1.1-0.2c0.3-0.2,0.6-0.4,0.8-0.8c0.2-0.4,0.4-0.8,0.5-1.4
	C212.2,111.7,212.2,110.9,212.2,110.2z M229,106.9v2.9c0,1.3-0.1,2.4-0.4,3.4c-0.3,0.9-0.6,1.7-1.1,2.3c-0.5,0.6-1.1,1-1.8,1.3
	s-1.5,0.4-2.3,0.4c-0.7,0-1.3-0.1-1.9-0.3c-0.6-0.2-1.1-0.5-1.6-0.8c-0.5-0.4-0.9-0.9-1.2-1.4c-0.3-0.6-0.6-1.3-0.8-2.1
	s-0.3-1.7-0.3-2.8v-2.9c0-1.3,0.1-2.4,0.4-3.4c0.3-0.9,0.7-1.7,1.2-2.3c0.5-0.6,1.1-1,1.8-1.3s1.5-0.4,2.3-0.4
	c0.7,0,1.3,0.1,1.9,0.3c0.6,0.2,1.1,0.4,1.6,0.8c0.5,0.4,0.9,0.8,1.2,1.4c0.3,0.6,0.6,1.3,0.8,2.1C228.9,104.9,229,105.9,229,106.9z
	 M225.9,110.2v-3.7c0-0.7,0-1.2-0.1-1.7s-0.2-0.9-0.3-1.3c-0.1-0.3-0.3-0.6-0.5-0.8s-0.5-0.4-0.7-0.5c-0.3-0.1-0.6-0.2-0.9-0.2
	c-0.4,0-0.8,0.1-1.1,0.2c-0.3,0.2-0.6,0.4-0.8,0.8c-0.2,0.3-0.4,0.8-0.5,1.4c-0.1,0.6-0.2,1.2-0.2,2.1v3.7c0,0.7,0,1.2,0.1,1.7
	s0.2,0.9,0.3,1.3c0.1,0.4,0.3,0.6,0.5,0.9c0.2,0.2,0.5,0.4,0.7,0.5c0.3,0.1,0.6,0.2,0.9,0.2c0.4,0,0.8-0.1,1.1-0.2
	c0.3-0.2,0.6-0.4,0.8-0.8c0.2-0.4,0.4-0.8,0.5-1.4C225.9,111.7,225.9,110.9,225.9,110.2z M242.7,106.9v2.9c0,1.3-0.1,2.4-0.4,3.4
	c-0.3,0.9-0.6,1.7-1.1,2.3c-0.5,0.6-1.1,1-1.8,1.3c-0.7,0.3-1.5,0.4-2.3,0.4c-0.7,0-1.3-0.1-1.9-0.3c-0.6-0.2-1.1-0.5-1.6-0.8
	c-0.5-0.4-0.9-0.9-1.2-1.4c-0.3-0.6-0.6-1.3-0.8-2.1c-0.2-0.8-0.3-1.7-0.3-2.8v-2.9c0-1.3,0.1-2.4,0.4-3.4c0.3-0.9,0.7-1.7,1.2-2.3
	c0.5-0.6,1.1-1,1.8-1.3c0.7-0.3,1.5-0.4,2.3-0.4c0.7,0,1.3,0.1,1.9,0.3c0.6,0.2,1.1,0.4,1.6,0.8c0.5,0.4,0.9,0.8,1.2,1.4
	c0.3,0.6,0.6,1.3,0.8,2.1C242.6,104.9,242.7,105.9,242.7,106.9z M239.6,110.2v-3.7c0-0.7,0-1.2-0.1-1.7s-0.2-0.9-0.3-1.3
	c-0.1-0.3-0.3-0.6-0.5-0.8s-0.5-0.4-0.7-0.5c-0.3-0.1-0.6-0.2-0.9-0.2c-0.4,0-0.8,0.1-1.1,0.2c-0.3,0.2-0.6,0.4-0.8,0.8
	c-0.2,0.3-0.4,0.8-0.5,1.4c-0.1,0.6-0.2,1.2-0.2,2.1v3.7c0,0.7,0,1.2,0.1,1.7s0.2,0.9,0.3,1.3c0.1,0.4,0.3,0.6,0.5,0.9
	c0.2,0.2,0.5,0.4,0.7,0.5c0.3,0.1,0.6,0.2,0.9,0.2c0.4,0,0.8-0.1,1.1-0.2c0.3-0.2,0.6-0.4,0.8-0.8c0.2-0.4,0.4-0.8,0.5-1.4
	C239.6,111.7,239.6,110.9,239.6,110.2z M253.1,99.8v17.1H250v-13.5l-4.1,1.4v-2.5l6.9-2.5H253.1z M264.4,110.7v-0.2
	c0-0.9,0.1-1.8,0.4-2.6s0.7-1.5,1.2-2.1c0.5-0.6,1.1-1,1.9-1.3c0.7-0.3,1.6-0.5,2.5-0.5c1,0,1.8,0.2,2.5,0.5s1.4,0.8,1.9,1.3
	c0.5,0.6,0.9,1.3,1.2,2.1c0.3,0.8,0.4,1.6,0.4,2.6v0.2c0,0.9-0.1,1.8-0.4,2.6c-0.3,0.8-0.7,1.5-1.2,2.1c-0.5,0.6-1.1,1-1.9,1.3
	c-0.7,0.3-1.6,0.5-2.5,0.5s-1.8-0.2-2.5-0.5s-1.4-0.8-1.9-1.3c-0.5-0.6-0.9-1.3-1.2-2.1C264.6,112.4,264.4,111.6,264.4,110.7z
	 M267.5,110.4v0.2c0,0.6,0.1,1.1,0.2,1.6s0.3,0.9,0.5,1.3c0.2,0.4,0.5,0.7,0.9,0.9c0.4,0.2,0.8,0.3,1.3,0.3s0.9-0.1,1.3-0.3
	s0.7-0.5,0.9-0.9c0.2-0.4,0.4-0.8,0.5-1.3s0.2-1,0.2-1.6v-0.2c0-0.5-0.1-1.1-0.2-1.5c-0.1-0.5-0.3-0.9-0.5-1.3
	c-0.2-0.4-0.5-0.7-0.9-0.9c-0.4-0.2-0.8-0.3-1.3-0.3s-0.9,0.1-1.3,0.3s-0.7,0.5-0.9,0.9c-0.2,0.4-0.4,0.8-0.5,1.3
	S267.5,109.9,267.5,110.4z M284.4,104.2v12.7h-3.1v-12.7H284.4z M288.6,104.2v2.4h-11.3v-2.4H288.6z M307.8,114.4v2.4h-11.6v-2.1
	l5.5-6c0.6-0.7,1-1.2,1.4-1.7c0.3-0.5,0.6-0.9,0.7-1.3c0.1-0.4,0.2-0.8,0.2-1.1c0-0.5-0.1-1-0.3-1.4c-0.2-0.4-0.5-0.7-0.8-0.9
	c-0.4-0.2-0.8-0.3-1.3-0.3c-0.6,0-1.1,0.1-1.5,0.4s-0.7,0.6-0.9,1.1c-0.2,0.5-0.3,1-0.3,1.6h-3.1c0-1,0.2-1.9,0.7-2.8
	c0.5-0.8,1.1-1.5,2-2s1.9-0.8,3.1-0.8s2.2,0.2,3,0.6c0.8,0.4,1.4,0.9,1.9,1.6c0.4,0.7,0.6,1.6,0.6,2.5c0,0.5-0.1,1.1-0.3,1.6
	c-0.2,0.5-0.4,1.1-0.8,1.6c-0.3,0.5-0.7,1-1.1,1.6c-0.4,0.5-0.9,1.1-1.5,1.6l-3.3,3.7h7.7V114.4z M321.4,99.8v1.7l-6.7,15.4h-3.3
	l6.7-14.6h-8.7v-2.4h12V99.8z M323.9,115.4c0-0.5,0.2-0.9,0.5-1.2c0.3-0.3,0.8-0.5,1.3-0.5s1,0.2,1.3,0.5s0.5,0.7,0.5,1.2
	s-0.2,0.9-0.5,1.2s-0.8,0.5-1.3,0.5s-1-0.2-1.3-0.5C324.1,116.2,323.9,115.8,323.9,115.4z M341.7,106.9v2.9c0,1.3-0.1,2.4-0.4,3.4
	c-0.3,0.9-0.6,1.7-1.1,2.3c-0.5,0.6-1.1,1-1.8,1.3c-0.7,0.3-1.5,0.4-2.3,0.4c-0.7,0-1.3-0.1-1.9-0.3c-0.6-0.2-1.1-0.5-1.6-0.8
	c-0.5-0.4-0.9-0.9-1.2-1.4c-0.3-0.6-0.6-1.3-0.8-2.1c-0.2-0.8-0.3-1.7-0.3-2.8v-2.9c0-1.3,0.1-2.4,0.4-3.4c0.3-0.9,0.7-1.7,1.2-2.3
	c0.5-0.6,1.1-1,1.8-1.3c0.7-0.3,1.5-0.4,2.3-0.4c0.7,0,1.3,0.1,1.9,0.3c0.6,0.2,1.1,0.4,1.6,0.8c0.5,0.4,0.9,0.8,1.2,1.4
	c0.3,0.6,0.6,1.3,0.8,2.1C341.6,104.9,341.7,105.9,341.7,106.9z M338.6,110.2v-3.7c0-0.7,0-1.2-0.1-1.7s-0.2-0.9-0.3-1.3
	c-0.1-0.3-0.3-0.6-0.5-0.8s-0.5-0.4-0.7-0.5c-0.3-0.1-0.6-0.2-0.9-0.2c-0.4,0-0.8,0.1-1.1,0.2c-0.3,0.2-0.6,0.4-0.8,0.8
	c-0.2,0.3-0.4,0.8-0.5,1.4c-0.1,0.6-0.2,1.2-0.2,2.1v3.7c0,0.7,0,1.2,0.1,1.7s0.2,0.9,0.3,1.3c0.1,0.4,0.3,0.6,0.5,0.9
	c0.2,0.2,0.5,0.4,0.7,0.5c0.3,0.1,0.6,0.2,0.9,0.2c0.4,0,0.8-0.1,1.1-0.2c0.3-0.2,0.6-0.4,0.8-0.8c0.2-0.4,0.4-0.8,0.5-1.4
	C338.6,111.7,338.6,110.9,338.6,110.2z M355.6,99.8v1.7l-6.7,15.4h-3.3l6.7-14.6h-8.7v-2.4h12V99.8z M358.2,115.4
	c0-0.5,0.2-0.9,0.5-1.2c0.3-0.3,0.8-0.5,1.3-0.5s1,0.2,1.3,0.5s0.5,0.7,0.5,1.2s-0.2,0.9-0.5,1.2s-0.8,0.5-1.3,0.5s-1-0.2-1.3-0.5
	C358.3,116.2,358.2,115.8,358.2,115.4z M376.2,114.4v2.4h-11.6v-2.1l5.5-6c0.6-0.7,1-1.2,1.4-1.7c0.3-0.5,0.6-0.9,0.7-1.3
	c0.1-0.4,0.2-0.8,0.2-1.1c0-0.5-0.1-1-0.3-1.4c-0.2-0.4-0.5-0.7-0.8-0.9c-0.4-0.2-0.8-0.3-1.3-0.3c-0.6,0-1.1,0.1-1.5,0.4
	s-0.7,0.6-0.9,1.1c-0.2,0.5-0.3,1-0.3,1.6h-3.1c0-1,0.2-1.9,0.7-2.8c0.5-0.8,1.1-1.5,2-2s1.9-0.8,3.1-0.8s2.2,0.2,3,0.6
	c0.8,0.4,1.4,0.9,1.9,1.6c0.4,0.7,0.6,1.6,0.6,2.5c0,0.5-0.1,1.1-0.3,1.6c-0.2,0.5-0.4,1.1-0.8,1.6c-0.3,0.5-0.7,1-1.1,1.6
	c-0.4,0.5-0.9,1.1-1.5,1.6l-3.3,3.7h7.7V114.4z M389.7,106.9v2.9c0,1.3-0.1,2.4-0.4,3.4c-0.3,0.9-0.6,1.7-1.1,2.3
	c-0.5,0.6-1.1,1-1.8,1.3c-0.7,0.3-1.5,0.4-2.3,0.4c-0.7,0-1.3-0.1-1.9-0.3c-0.6-0.2-1.1-0.5-1.6-0.8c-0.5-0.4-0.9-0.9-1.2-1.4
	c-0.3-0.6-0.6-1.3-0.8-2.1c-0.2-0.8-0.3-1.7-0.3-2.8v-2.9c0-1.3,0.1-2.4,0.4-3.4c0.3-0.9,0.7-1.7,1.2-2.3c0.5-0.6,1.1-1,1.8-1.3
	c0.7-0.3,1.5-0.4,2.3-0.4c0.7,0,1.3,0.1,1.9,0.3c0.6,0.2,1.1,0.4,1.6,0.8c0.5,0.4,0.9,0.8,1.2,1.4c0.3,0.6,0.6,1.3,0.8,2.1
	C389.6,104.9,389.7,105.9,389.7,106.9z M386.6,110.2v-3.7c0-0.7,0-1.2-0.1-1.7s-0.2-0.9-0.3-1.3c-0.1-0.3-0.3-0.6-0.5-0.8
	s-0.5-0.4-0.7-0.5c-0.3-0.1-0.6-0.2-0.9-0.2c-0.4,0-0.8,0.1-1.1,0.2c-0.3,0.2-0.6,0.4-0.8,0.8c-0.2,0.3-0.4,0.8-0.5,1.4
	c-0.1,0.6-0.2,1.2-0.2,2.1v3.7c0,0.7,0,1.2,0.1,1.7s0.2,0.9,0.3,1.3c0.1,0.4,0.3,0.6,0.5,0.9c0.2,0.2,0.5,0.4,0.7,0.5
	c0.3,0.1,0.6,0.2,0.9,0.2c0.4,0,0.8-0.1,1.1-0.2c0.3-0.2,0.6-0.4,0.8-0.8c0.2-0.4,0.4-0.8,0.5-1.4
	C386.5,111.7,386.6,110.9,386.6,110.2z M403.7,114.4v2.4h-11.6v-2.1l5.5-6c0.6-0.7,1-1.2,1.4-1.7c0.3-0.5,0.6-0.9,0.7-1.3
	c0.1-0.4,0.2-0.8,0.2-1.1c0-0.5-0.1-1-0.3-1.4c-0.2-0.4-0.5-0.7-0.8-0.9c-0.4-0.2-0.8-0.3-1.3-0.3c-0.6,0-1.1,0.1-1.5,0.4
	s-0.7,0.6-0.9,1.1c-0.2,0.5-0.3,1-0.3,1.6h-3.1c0-1,0.2-1.9,0.7-2.8c0.5-0.8,1.1-1.5,2-2s1.9-0.8,3.1-0.8s2.2,0.2,3,0.6
	c0.8,0.4,1.4,0.9,1.9,1.6c0.4,0.7,0.6,1.6,0.6,2.5c0,0.5-0.1,1.1-0.3,1.6c-0.2,0.5-0.4,1.1-0.8,1.6c-0.3,0.5-0.7,1-1.1,1.6
	c-0.4,0.5-0.9,1.1-1.5,1.6l-3.3,3.7h7.7V114.4z M417.4,114.4v2.4h-11.6v-2.1l5.5-6c0.6-0.7,1-1.2,1.4-1.7c0.3-0.5,0.6-0.9,0.7-1.3
	c0.1-0.4,0.2-0.8,0.2-1.1c0-0.5-0.1-1-0.3-1.4c-0.2-0.4-0.5-0.7-0.8-0.9c-0.4-0.2-0.8-0.3-1.3-0.3c-0.6,0-1.1,0.1-1.5,0.4
	s-0.7,0.6-0.9,1.1c-0.2,0.5-0.3,1-0.3,1.6h-3.1c0-1,0.2-1.9,0.7-2.8c0.5-0.8,1.1-1.5,2-2s1.9-0.8,3.1-0.8s2.2,0.2,3,0.6
	c0.8,0.4,1.4,0.9,1.9,1.6c0.4,0.7,0.6,1.6,0.6,2.5c0,0.5-0.1,1.1-0.3,1.6c-0.2,0.5-0.4,1.1-0.8,1.6c-0.3,0.5-0.7,1-1.1,1.6
	c-0.4,0.5-0.9,1.1-1.5,1.6l-3.3,3.7h7.7V114.4z"/>
<path class="st2" d="M1000.6,36l-6.6,6.6l1.4,1.4l6.6-6.6l6.6,6.6l1.4-1.4l-6.6-6.6l6.6-6.6l-1.4-1.4l-6.6,6.6l-6.6-6.6l-1.4,1.4
	L1000.6,36z"/>
<path class="st3" d="M34,24h64c6.6,0,12,5.4,12,12l0,0c0,6.6-5.4,12-12,12H34c-6.6,0-12-5.4-12-12l0,0C22,29.4,27.4,24,34,24z"/>
<path class="st4" d="M36.5,35v1.3H32V35H36.5z M32.4,31.5V40h-1.6v-8.5H32.4z M37.7,31.5V40h-1.6v-8.5H37.7z M42.7,38.7v-2.9
	c0-0.2,0-0.4-0.1-0.6c-0.1-0.2-0.2-0.3-0.3-0.4c-0.2-0.1-0.3-0.1-0.6-0.1c-0.2,0-0.4,0-0.5,0.1c-0.2,0.1-0.3,0.2-0.4,0.3
	s-0.1,0.3-0.1,0.4h-1.6c0-0.3,0.1-0.5,0.2-0.7s0.3-0.4,0.5-0.6c0.2-0.2,0.5-0.3,0.8-0.4c0.3-0.1,0.7-0.2,1.1-0.2
	c0.5,0,0.9,0.1,1.3,0.2c0.4,0.2,0.7,0.4,0.9,0.7c0.2,0.3,0.3,0.7,0.3,1.2v2.8c0,0.3,0,0.6,0.1,0.8c0,0.2,0.1,0.4,0.2,0.6V40h-1.6
	c-0.1-0.2-0.1-0.4-0.2-0.6C42.7,39.1,42.7,38.9,42.7,38.7z M42.9,36.1V37h-1c-0.2,0-0.5,0-0.6,0.1c-0.2,0-0.3,0.1-0.5,0.2
	c-0.1,0.1-0.2,0.2-0.3,0.3c-0.1,0.1-0.1,0.3-0.1,0.4c0,0.2,0,0.3,0.1,0.4c0.1,0.1,0.2,0.2,0.3,0.3c0.1,0.1,0.3,0.1,0.5,0.1
	c0.3,0,0.5-0.1,0.7-0.2c0.2-0.1,0.4-0.2,0.5-0.4s0.2-0.3,0.2-0.5l0.4,0.7c-0.1,0.2-0.1,0.3-0.2,0.5s-0.2,0.3-0.4,0.5
	c-0.2,0.2-0.4,0.3-0.6,0.4c-0.2,0.1-0.5,0.2-0.8,0.2c-0.4,0-0.8-0.1-1.1-0.2c-0.3-0.2-0.6-0.4-0.8-0.7c-0.2-0.3-0.3-0.6-0.3-1
	c0-0.3,0.1-0.6,0.2-0.9s0.3-0.5,0.6-0.7c0.2-0.2,0.6-0.3,0.9-0.4C41,36,41.4,36,41.9,36h1V36.1z M52.9,33.7v1.2h-3.1v-1.2H52.9z
	 M50.2,33.7V40h-1.6v-6.3H50.2z M54.1,33.7V40h-1.6v-6.3H54.1z M57,34.9v7.6h-1.6v-8.8h1.4L57,34.9z M61.1,36.8L61.1,36.8
	c0,0.6-0.1,1-0.2,1.4c-0.1,0.4-0.3,0.7-0.5,1s-0.5,0.5-0.8,0.7s-0.7,0.2-1.1,0.2s-0.7-0.1-1-0.2c-0.3-0.2-0.5-0.4-0.7-0.6
	c-0.2-0.3-0.4-0.6-0.5-1s-0.2-0.8-0.3-1.2v-0.4c0.1-0.5,0.1-0.9,0.3-1.3c0.1-0.4,0.3-0.7,0.5-1s0.4-0.5,0.7-0.7
	c0.3-0.2,0.6-0.2,1-0.2s0.8,0.1,1.1,0.2c0.3,0.2,0.6,0.4,0.8,0.7c0.2,0.3,0.4,0.6,0.5,1S61.1,36.3,61.1,36.8z M59.5,36.9L59.5,36.9
	c0-0.4,0-0.6-0.1-0.9c-0.1-0.2-0.1-0.5-0.2-0.6c-0.1-0.2-0.2-0.3-0.4-0.4c-0.2-0.1-0.4-0.2-0.6-0.2s-0.4,0-0.6,0.1s-0.3,0.2-0.4,0.3
	s-0.2,0.3-0.3,0.5c-0.1,0.2-0.1,0.4-0.1,0.7v1c0,0.3,0.1,0.5,0.2,0.8c0.1,0.2,0.2,0.4,0.4,0.6c0.2,0.1,0.5,0.2,0.8,0.2
	c0.2,0,0.4-0.1,0.6-0.2c0.2-0.1,0.3-0.2,0.4-0.4s0.2-0.4,0.2-0.6C59.5,37.4,59.5,37.2,59.5,36.9z M61.9,36.9L61.9,36.9
	c0-0.6,0.1-1,0.2-1.4c0.1-0.4,0.3-0.7,0.6-1c0.3-0.3,0.6-0.5,0.9-0.7c0.4-0.2,0.8-0.2,1.3-0.2s0.9,0.1,1.3,0.2
	c0.4,0.2,0.7,0.4,0.9,0.7c0.3,0.3,0.4,0.6,0.6,1c0.1,0.4,0.2,0.8,0.2,1.3v0.1c0,0.5-0.1,0.9-0.2,1.3c-0.1,0.4-0.3,0.7-0.6,1
	c-0.3,0.3-0.6,0.5-0.9,0.7c-0.4,0.2-0.8,0.2-1.3,0.2S64,40,63.6,39.9c-0.4-0.2-0.7-0.4-0.9-0.7c-0.3-0.3-0.4-0.6-0.6-1
	C62,37.8,61.9,37.4,61.9,36.9z M63.5,36.8L63.5,36.8c0,0.4,0,0.6,0.1,0.9c0.1,0.2,0.1,0.5,0.3,0.6c0.1,0.2,0.3,0.3,0.4,0.4
	c0.2,0.1,0.4,0.2,0.7,0.2c0.2,0,0.5-0.1,0.6-0.2c0.2-0.1,0.3-0.2,0.4-0.4s0.2-0.4,0.3-0.6c0.1-0.2,0.1-0.5,0.1-0.8v-0.1
	c0-0.3,0-0.5-0.1-0.8c-0.1-0.2-0.1-0.5-0.3-0.6c-0.1-0.2-0.3-0.3-0.4-0.4c-0.2-0.1-0.4-0.2-0.7-0.2c-0.2,0-0.5,0.1-0.6,0.2
	c-0.2,0.1-0.3,0.3-0.4,0.4c-0.1,0.2-0.2,0.4-0.3,0.6C63.5,36.2,63.5,36.5,63.5,36.8z M72.1,37.3h-2v-1h1.7c0.2,0,0.4,0,0.6-0.1
	s0.3-0.1,0.3-0.2c0.1-0.1,0.1-0.2,0.1-0.4c0-0.1,0-0.2-0.1-0.3c0-0.1-0.1-0.2-0.2-0.2C72.4,35,72.3,35,72.2,35c-0.1,0-0.3,0-0.5,0
	h-1v5h-1.6v-6.3h2.6c0.4,0,0.8,0,1.1,0.1c0.3,0.1,0.6,0.2,0.8,0.3c0.2,0.1,0.4,0.3,0.5,0.6c0.1,0.2,0.2,0.5,0.2,0.8
	c0,0.2,0,0.4-0.1,0.6c-0.1,0.2-0.2,0.3-0.4,0.5s-0.4,0.2-0.6,0.3s-0.5,0.1-0.8,0.2L72.1,37.3z M72.1,40h-2.4l0.6-1.2h1.9
	c0.2,0,0.4,0,0.6-0.1c0.1-0.1,0.3-0.1,0.3-0.3c0.1-0.1,0.1-0.2,0.1-0.4s0-0.3-0.1-0.4c-0.1-0.1-0.2-0.2-0.3-0.3
	c-0.1-0.1-0.3-0.1-0.6-0.1h-1.6v-1h1.9l0.4,0.4c0.4,0,0.8,0.1,1,0.3c0.3,0.1,0.5,0.3,0.6,0.5s0.2,0.5,0.2,0.7c0,0.3-0.1,0.6-0.2,0.8
	s-0.3,0.4-0.5,0.6c-0.2,0.1-0.5,0.3-0.8,0.3C72.9,40,72.5,40,72.1,40z M78.7,40.1c-0.5,0-0.9-0.1-1.3-0.2c-0.4-0.2-0.7-0.4-1-0.7
	s-0.5-0.6-0.6-1s-0.2-0.8-0.2-1.2v-0.2c0-0.5,0.1-0.9,0.2-1.3c0.1-0.4,0.3-0.7,0.6-1c0.3-0.3,0.6-0.5,0.9-0.7
	c0.4-0.2,0.8-0.2,1.2-0.2c0.4,0,0.8,0.1,1.2,0.2c0.3,0.1,0.6,0.4,0.9,0.6c0.2,0.3,0.4,0.6,0.5,1s0.2,0.8,0.2,1.3v0.7h-5v-1.1h3.4
	v-0.1c0-0.2-0.1-0.5-0.1-0.7c-0.1-0.2-0.2-0.4-0.4-0.5c-0.2-0.1-0.4-0.2-0.7-0.2c-0.2,0-0.4,0.1-0.6,0.2c-0.2,0.1-0.3,0.2-0.4,0.4
	s-0.2,0.4-0.2,0.6c-0.1,0.2-0.1,0.5-0.1,0.8V37c0,0.3,0,0.5,0.1,0.7s0.2,0.4,0.3,0.6c0.1,0.2,0.3,0.3,0.5,0.4
	c0.2,0.1,0.4,0.1,0.7,0.1c0.3,0,0.6-0.1,0.9-0.2c0.3-0.1,0.5-0.3,0.7-0.6l0.8,0.8c-0.1,0.2-0.3,0.4-0.5,0.6
	c-0.2,0.2-0.5,0.3-0.8,0.4C79.4,40.1,79.1,40.1,78.7,40.1z M83.8,34.9v7.6h-1.6v-8.8h1.4L83.8,34.9z M87.9,36.8L87.9,36.8
	c0,0.6-0.1,1-0.2,1.4c-0.1,0.4-0.3,0.7-0.5,1s-0.5,0.5-0.8,0.7s-0.7,0.2-1.1,0.2s-0.7-0.1-1-0.2c-0.3-0.2-0.5-0.4-0.7-0.6
	s-0.4-0.6-0.5-1s-0.2-0.8-0.3-1.2v-0.4c0.1-0.5,0.1-0.9,0.3-1.3c0.1-0.4,0.3-0.7,0.5-1s0.4-0.5,0.7-0.7c0.3-0.2,0.6-0.2,1-0.2
	s0.8,0.1,1.1,0.2c0.3,0.2,0.6,0.4,0.8,0.7c0.2,0.3,0.4,0.6,0.5,1S87.9,36.3,87.9,36.8z M86.3,36.9L86.3,36.9c0-0.4,0-0.6-0.1-0.9
	c-0.1-0.2-0.1-0.5-0.2-0.6c-0.1-0.2-0.2-0.3-0.4-0.4c-0.2-0.1-0.4-0.2-0.6-0.2s-0.4,0-0.6,0.1s-0.3,0.2-0.4,0.3s-0.2,0.3-0.3,0.5
	c-0.1,0.2-0.1,0.4-0.1,0.7v1c0,0.3,0.1,0.5,0.2,0.8c0.1,0.2,0.2,0.4,0.4,0.6c0.2,0.1,0.5,0.2,0.8,0.2c0.2,0,0.4-0.1,0.6-0.2
	c0.2-0.1,0.3-0.2,0.4-0.4s0.2-0.4,0.2-0.6C86.3,37.4,86.3,37.2,86.3,36.9z M90.7,33.7V40h-1.5v-6.3H90.7z M94.8,33.7L92,37.6h-1.6
	l-0.2-1.4h1.1l1.5-2.5H94.8z M92.9,40l-1.7-2.7l1.3-0.8L95,40H92.9z M98.5,40.1c-0.5,0-0.9-0.1-1.3-0.2c-0.4-0.2-0.7-0.4-1-0.7
	s-0.5-0.6-0.6-1s-0.2-0.8-0.2-1.2v-0.2c0-0.5,0.1-0.9,0.2-1.3c0.1-0.4,0.3-0.7,0.6-1c0.3-0.3,0.6-0.5,0.9-0.7
	c0.4-0.2,0.8-0.2,1.2-0.2c0.4,0,0.8,0.1,1.2,0.2c0.3,0.1,0.6,0.4,0.9,0.6c0.2,0.3,0.4,0.6,0.5,1s0.2,0.8,0.2,1.3v0.7h-5v-1.1h3.4
	v-0.1c0-0.2-0.1-0.5-0.1-0.7c-0.1-0.2-0.2-0.4-0.4-0.5s-0.4-0.2-0.7-0.2c-0.2,0-0.4,0.1-0.6,0.2c-0.2,0.1-0.3,0.2-0.4,0.4
	s-0.2,0.4-0.2,0.6S97,36.5,97,36.8V37c0,0.3,0,0.5,0.1,0.7s0.2,0.4,0.3,0.6c0.1,0.2,0.3,0.3,0.5,0.4c0.2,0.1,0.4,0.1,0.7,0.1
	s0.6-0.1,0.9-0.2c0.3-0.1,0.5-0.3,0.7-0.6l0.8,0.8c-0.1,0.2-0.3,0.4-0.5,0.6c-0.2,0.2-0.5,0.3-0.8,0.4
	C99.2,40.1,98.9,40.1,98.5,40.1z"/>
<g>
	<g>
		<defs>
			<rect id="SVGID_1_" x="942" y="102" width="24" height="24"/>
		</defs>
		<clipPath id="SVGID_2_">
			<use xlink:href="#SVGID_1_"  style="overflow:visible;"/>
		</clipPath>
		<g class="st5">
			<path class="st6" d="M950,110h-2v7c0,1.1,0.9,2,2,2h9v-2h-9V110z"/>
			<path class="st6" d="M962,105h-8c-1.1,0-2,0.9-2,2v6c0,1.1,0.9,2,2,2h8c1.1,0,2-0.9,2-2v-6C964,105.9,963.1,105,962,105z
				 M962,113h-8v-4h8V113z"/>
			<path class="st6" d="M946,114h-2v7c0,1.1,0.9,2,2,2h9v-2h-9V114z"/>
		</g>
	</g>
</g>
<path class="st2" d="M998.2,114c0,1.1-0.9,1.9-1.9,1.9c-1.1,0-1.9-0.9-1.9-1.9s0.9-1.9,1.9-1.9C997.3,112.1,998.2,112.9,998.2,114z
	 M1003.9,114c0,1.1-0.9,1.9-1.9,1.9s-1.9-0.9-1.9-1.9s0.9-1.9,1.9-1.9S1003.9,112.9,1003.9,114z M1007.8,115.9
	c1.1,0,1.9-0.9,1.9-1.9s-0.9-1.9-1.9-1.9c-1.1,0-1.9,0.9-1.9,1.9S1006.7,115.9,1007.8,115.9z"/>
<g>
	<g>
		<defs>
			<polygon id="SVGID_3_" points="-29,1 -28,1 -29,2 			"/>
		</defs>
		<clipPath id="SVGID_4_">
			<use xlink:href="#SVGID_3_"  style="overflow:visible;"/>
		</clipPath>
	</g>
	<g>
		<defs>
			<polygon id="SVGID_5_" points="-29,1 -28,1 -29,2 			"/>
		</defs>
		<defs>
			<polygon id="SVGID_6_" points="-31,-1 -32,-1 -31,-2 			"/>
		</defs>
		<clipPath id="SVGID_7_">
			<use xlink:href="#SVGID_5_"  style="overflow:visible;"/>
		</clipPath>
		<clipPath id="SVGID_8_" class="st7">
			<use xlink:href="#SVGID_6_"  style="overflow:visible;"/>
		</clipPath>
		<path class="st8" d="M1038,149H-2v2h1040V149z"/>
	</g>
</g>
<g>
	<g>
		<defs>
			<polygon id="SVGID_9_" points="-29,1 -28,1 -29,2 			"/>
		</defs>
		<clipPath id="SVGID_10_">
			<use xlink:href="#SVGID_9_"  style="overflow:visible;"/>
		</clipPath>
	</g>
	<g>
		<defs>
			<polygon id="SVGID_11_" points="-29,1 -28,1 -29,2 			"/>
		</defs>
		<defs>
			<polygon id="SVGID_12_" points="-31,-1 -32,-1 -31,-2 			"/>
		</defs>
		<clipPath id="SVGID_13_">
			<use xlink:href="#SVGID_11_"  style="overflow:visible;"/>
		</clipPath>
		<clipPath id="SVGID_14_" class="st9">
			<use xlink:href="#SVGID_12_"  style="overflow:visible;"/>
		</clipPath>
		<path class="st10" d="M619,370v-36h-2v36H619z"/>
	</g>
</g>
<g>
	<g>
		<defs>
			<polygon id="SVGID_15_" points="-29,1 -28,1 -29,2 			"/>
		</defs>
		<clipPath id="SVGID_16_">
			<use xlink:href="#SVGID_15_"  style="overflow:visible;"/>
		</clipPath>
	</g>
	<g>
		<defs>
			<polygon id="SVGID_17_" points="-29,1 -28,1 -29,2 			"/>
		</defs>
		<defs>
			<polygon id="SVGID_18_" points="-31,-1 -32,-1 -31,-2 			"/>
		</defs>
		<clipPath id="SVGID_19_">
			<use xlink:href="#SVGID_17_"  style="overflow:visible;"/>
		</clipPath>
		<clipPath id="SVGID_20_" class="st11">
			<use xlink:href="#SVGID_18_"  style="overflow:visible;"/>
		</clipPath>
		<path class="st12" d="M1014,517H22v2h992V517z"/>
	</g>
</g>
<g>
	<g>
		<defs>
			<polygon id="SVGID_21_" points="-29,1 -28,1 -29,2 			"/>
		</defs>
		<clipPath id="SVGID_22_">
			<use xlink:href="#SVGID_21_"  style="overflow:visible;"/>
		</clipPath>
	</g>
	<g>
		<defs>
			<polygon id="SVGID_23_" points="-29,1 -28,1 -29,2 			"/>
		</defs>
		<defs>
			<polygon id="SVGID_24_" points="-31,-1 -32,-1 -31,-2 			"/>
		</defs>
		<clipPath id="SVGID_25_">
			<use xlink:href="#SVGID_23_"  style="overflow:visible;"/>
		</clipPath>
		<clipPath id="SVGID_26_" class="st13">
			<use xlink:href="#SVGID_24_"  style="overflow:visible;"/>
		</clipPath>
		<path class="st14" d="M1014,577H22v2h992V577z"/>
	</g>
</g>
</svg>
